{"title":"Extraordinary.Measures.2010.DVDRiP.XviD.OPTIONAL-NORDIC_SUB-Zen_","uid":5899909,"size":1499384512,"categoryP":"video","categoryS":"movies","magnet":"?xt=urn:btih:7ec0b746c22ec5197d57e7849953387f5daf2e60&amp;dn=Extraordinary.Measures.2010.DVDRiP.XviD.OPTIONAL-NORDIC_SUB-Zen_&amp;tr=udp%3A%2F%2Ftracker.openbittorrent.com%3A80&amp;tr=udp%3A%2F%2Fopen.demonii.com%3A1337&amp;tr=udp%3A%2F%2Ftracker.coppersurfer.tk%3A6969&amp;tr=udp%3A%2F%2Fexodus.desync.com%3A6969","seeders":0,"leechers":1,"uploader":"Zen_Bud","files":-1,"time":1287646507,"description":"\n* Extraordinary.Measures.2010.DVDRiP.XviD.OPTIONAL-NORDIC_SUB-Zen_Bud *\n\nFormat\n                                 : AVI\nFile size                        : 1.37 GiB\nDuration                         : 1h 40mn\nOverall bit rate                 : 1 946 Kbps\n\nVideo\n\nFormat                           : MPEG-4 Visual\nCodec ID/Hint                    : XviD\nDuration                         : 1h 40mn\nBit rate                         : 1 805 Kbps\nWidth                            : 720 pixels\nHeight                           : 550 pixels\nDisplay aspect ratio             : 1.862\nStream size                      : 1.27 GiB (93%)\nWriting library                  : XviD 1.1.2 (UTC 2006-11-01)\n\nAudio\n\nFormat                           : MPEG Audio\nCodec ID/Hint                    : MP3\nDuration                         : 1h 40mn\nBit rate                         : 128 Kbps\nChannel(s)                       : 2 channels\nSampling rate                    : 48.0 KHz\nStream size                      : 92.3 MiB (7%)\nWriting library                  : LAME3.98\nLanguage                         : English\n\n\nText #1\nLanguage                         : English\n\nText #2\nLanguage                         : Danish\n\nText #3\nLanguage                         : Finnish\n\nText #4\nLanguage                         : Norwegian\n\nText #5\nLanguage                         : Swedish\n\n\nA drama centered on the efforts of John and Aileen Crowley \n to find a researcher who might have a cure \n for their two children's rare genetic disorder.","torrent":{"xt":"urn:btih:7ec0b746c22ec5197d57e7849953387f5daf2e60","amp;dn":"Extraordinary.Measures.2010.DVDRiP.XviD.OPTIONAL-NORDIC_SUB-Zen_","amp;tr":["udp%3A%2F%2Ftracker.openbittorrent.com%3A80","udp%3A%2F%2Fopen.demonii.com%3A1337","udp%3A%2F%2Ftracker.coppersurfer.tk%3A6969","udp%3A%2F%2Fexodus.desync.com%3A6969"],"infoHash":"7ec0b746c22ec5197d57e7849953387f5daf2e60","infoHashBuffer":{"type":"Buffer","data":[126,192,183,70,194,46,197,25,125,87,231,132,153,83,56,127,93,175,46,96]},"announce":[],"urlList":[]}}